<?xml version="1.0" encoding="UTF-8"?>
<svg width="421px" height="315px" viewBox="0 0 421 315" version="1.1" xmlns="http://www.w3.org/2000/svg" xmlns:xlink="http://www.w3.org/1999/xlink">
    <title>Group 27</title>
    <defs>
        <path d="M19.999,0 C8.954,0 -3.55271368e-14,8.954 -3.55271368e-14,20 L-3.55271368e-14,20 L-3.55271368e-14,295 C-3.55271368e-14,306.046 8.954,315 19.999,315 L19.999,315 L401,315 C412.046,315 421,306.046 421,295 L421,295 L421,20 C421,8.954 412.046,0 401,0 L401,0 L19.999,0 Z" id="path-1"></path>
        <path d="M19.999,0 C8.954,0 -3.55271368e-14,8.954 -3.55271368e-14,20 L-3.55271368e-14,20 L-3.55271368e-14,295 C-3.55271368e-14,306.046 8.954,315 19.999,315 L19.999,315 L401,315 C412.046,315 421,306.046 421,295 L421,295 L421,20 C421,8.954 412.046,0 401,0 L401,0 L19.999,0 Z" id="path-3"></path>
        <path d="M0,1.482 L4.512,17.38 L9.92,15.897 L5.409,0 L0,1.482 Z M7.751,18.319 C7.264,18.453 7.006,18.98 7.034,19.487 L7.034,19.487 C7.17,19.964 7.722,20.269 8.209,20.137 L8.209,20.137 L8.262,20.121 C8.804,19.974 9.063,19.445 8.927,18.969 L8.927,18.969 C8.803,18.532 8.416,18.284 8.011,18.284 L8.011,18.284 C7.925,18.284 7.837,18.296 7.751,18.319 L7.751,18.319 Z" id="path-5"></path>
        <path d="M0,1.482 L4.513,17.38 L9.922,15.898 L5.409,0 L0,1.482 Z M7.767,18.373 C7.281,18.507 6.953,18.995 7.104,19.526 L7.104,19.526 C7.239,20.003 7.793,20.309 8.279,20.174 L8.279,20.174 C8.765,20.041 9.079,19.499 8.943,19.022 L8.943,19.022 C8.829,18.621 8.42,18.341 8.004,18.341 L8.004,18.341 C7.925,18.341 7.845,18.351 7.767,18.373 L7.767,18.373 Z" id="path-7"></path>
        <path d="M0,1.482 L4.512,17.38 L9.92,15.899 L5.408,0 L0,1.482 Z M7.643,18.349 C7.211,18.468 6.952,18.996 6.924,19.517 L6.924,19.517 C7.06,19.994 7.614,20.3 8.1,20.166 L8.1,20.166 L8.155,20.151 C8.696,20.003 8.954,19.475 8.818,18.999 L8.818,18.999 C8.694,18.563 8.308,18.314 7.903,18.314 L7.903,18.314 C7.817,18.314 7.729,18.326 7.643,18.349 L7.643,18.349 Z" id="path-9"></path>
        <path d="M57.0146022,0.012 L50.4706022,1.805 C50.3076022,1.85 50.1756022,2 50.2356022,2.212 L50.2356022,2.212 L52.3416022,9.631 C52.3866022,9.791 52.5396022,9.92 52.7566022,9.86 L52.7566022,9.86 L59.3006022,8.066 C59.4636022,8.023 59.5416022,7.887 59.4956022,7.728 L59.4956022,7.728 L59.4066022,7.41 C59.3606022,7.251 59.2226022,7.174 59.0606022,7.219 L59.0606022,7.219 L53.4346022,8.76 C53.3266022,8.79 53.2426022,8.698 53.2286022,8.646 L53.2286022,8.646 L52.5206022,6.156 C52.4906022,6.049 52.5296022,5.982 52.6376022,5.951 L52.6376022,5.951 L57.2896022,4.677 C57.4446022,4.635 57.5146022,4.445 57.4856022,4.339 L57.4856022,4.339 L57.3946022,4.02 C57.3496022,3.862 57.1576022,3.8 57.0486022,3.829 L57.0486022,3.829 L52.3966022,5.104 C52.2896022,5.133 52.2206022,5.096 52.1896022,4.989 L52.1896022,4.989 L51.5126022,2.605 C51.4836022,2.498 51.5756022,2.416 51.6296022,2.402 L51.6296022,2.402 L57.2556022,0.86 C57.4176022,0.816 57.4956022,0.68 57.4506022,0.521 L57.4506022,0.521 L57.3596022,0.202 C57.3236022,0.075 57.2266022,2.84217094e-14 57.1046022,2.84217094e-14 L57.1046022,2.84217094e-14 C57.0756022,2.84217094e-14 57.0456022,0.004 57.0146022,0.012 L57.0146022,0.012 Z M42.7346022,3.925 L42.2336022,4.006 C42.0716022,4.049 41.9536022,4.252 41.9986022,4.411 L41.9986022,4.411 L44.0296022,11.566 C44.1046022,11.83 44.3816022,11.984 44.6516022,11.909 L44.6516022,11.909 L50.9806022,10.175 C51.1426022,10.131 51.2746022,9.981 51.2136022,9.769 L51.2136022,9.769 L51.1686022,9.61 C51.1236022,9.451 50.9706022,9.322 50.7546022,9.38 L50.7546022,9.38 L45.2366022,10.892 C45.1286022,10.922 45.0596022,10.883 45.0296022,10.778 L45.0296022,10.778 L43.1496022,4.153 C43.1116022,4.018 42.9546022,3.915 42.8086022,3.915 L42.8086022,3.915 C42.7836022,3.915 42.7586022,3.918 42.7346022,3.925 L42.7346022,3.925 Z M39.8546022,4.656 L39.3136022,4.805 C39.1506022,4.85 39.0186022,5 39.0786022,5.213 L39.0786022,5.213 L41.1386022,12.472 C41.1846022,12.631 41.3916022,12.745 41.5536022,12.701 L41.5536022,12.701 L42.0956022,12.553 C42.2576022,12.508 42.3746022,12.305 42.3296022,12.146 L42.3296022,12.146 L40.2676022,4.882 C40.2206022,4.713 40.0896022,4.642 39.9566022,4.642 L39.9566022,4.642 C39.9226022,4.642 39.8876022,4.647 39.8546022,4.656 L39.8546022,4.656 Z M37.0016022,5.495 L36.5156022,5.628 C36.2986022,5.688 36.1666022,5.838 36.1036022,6.027 L36.1036022,6.027 L34.1376022,12.449 C34.1526022,12.502 34.0976022,12.516 34.0976022,12.516 L34.0976022,12.516 C34.0976022,12.516 34.0436022,12.531 34.0286022,12.478 L34.0286022,12.478 L28.8566022,8.013 C28.6326022,7.845 28.5106022,7.822 28.2936022,7.881 L28.2936022,7.881 L28.1856022,7.911 L27.6986022,8.044 C27.5366022,8.088 27.4196022,8.292 27.4646022,8.452 L27.4646022,8.452 L29.4956022,15.605 C29.5406022,15.764 29.7476022,15.878 29.9106022,15.834 L29.9106022,15.834 L30.5046022,15.671 C30.6666022,15.626 30.7996022,15.476 30.7386022,15.264 L30.7386022,15.264 L29.1906022,9.806 C29.1746022,9.753 29.2286022,9.739 29.2286022,9.739 L29.2286022,9.739 C29.2286022,9.739 29.2826022,9.723 29.2986022,9.776 L29.2986022,9.776 L33.6056022,13.45 C33.8136022,13.565 33.9506022,13.642 34.1666022,13.583 L34.1666022,13.583 L34.5996022,13.465 C34.8166022,13.404 34.9486022,13.254 35.0126022,13.066 L35.0126022,13.066 L36.6696022,7.814 C36.6546022,7.761 36.7086022,7.746 36.7086022,7.746 L36.7086022,7.746 C36.7626022,7.732 36.7766022,7.785 36.7766022,7.785 L36.7766022,7.785 L38.3256022,13.242 C38.3716022,13.402 38.5246022,13.53 38.7406022,13.472 L38.7406022,13.472 L39.2276022,13.339 C39.3896022,13.295 39.5226022,13.143 39.4626022,12.931 L39.4626022,12.931 L37.4166022,5.724 C37.3786022,5.589 37.2216022,5.485 37.0766022,5.485 L37.0766022,5.485 C37.0506022,5.485 37.0256022,5.488 37.0016022,5.495 L37.0016022,5.495 Z M25.6976022,8.592 L20.1806022,10.104 C18.9906022,10.43 17.8606022,10.968 18.4476022,13.034 L18.4476022,13.034 C19.0346022,15.102 20.7406022,14.748 21.5516022,14.526 L21.5516022,14.526 L25.0676022,13.563 C25.7716022,13.369 26.4266022,13.42 26.7266022,14.479 L26.7266022,14.479 C27.0276022,15.538 26.5616022,15.951 25.8046022,16.159 L25.8046022,16.159 L19.9636022,17.76 C19.8016022,17.804 19.7226022,17.939 19.7676022,18.099 L19.7676022,18.099 L19.8886022,18.523 C19.9336022,18.682 20.1256022,18.743 20.2346022,18.714 L20.2346022,18.714 L26.0216022,17.129 C27.2646022,16.787 28.4946022,16.393 27.8776022,14.221 L27.8776022,14.221 C27.2756022,12.101 25.5696022,12.455 24.7576022,12.676 L24.7576022,12.676 L21.2426022,13.64 C20.5396022,13.833 19.8146022,13.745 19.5136022,12.686 L19.5136022,12.686 C19.2126022,11.625 19.7336022,11.198 20.4906022,10.991 L20.4906022,10.991 L25.9526022,9.494 C26.1156022,9.449 26.1926022,9.313 26.1476022,9.155 L26.1476022,9.155 L26.0426022,8.784 C26.0066022,8.654 25.9086022,8.58 25.7866022,8.58 L25.7866022,8.58 C25.7586022,8.58 25.7286022,8.584 25.6976022,8.592 L25.6976022,8.592 Z M12.5776022,12.072 C11.3336022,12.413 9.88560219,13.267 9.41460219,14.482 L9.41460219,14.482 C9.20060219,15.168 9.31260219,15.766 9.61360219,16.825 L9.61360219,16.825 L9.80960219,17.515 C10.1256022,18.627 10.3286022,19.143 10.8736022,19.622 L10.8736022,19.622 C11.8766022,20.49 13.6196022,20.469 14.8636022,20.127 L14.8636022,20.127 C16.1086022,19.786 17.5716022,18.987 18.0126022,17.667 L18.0126022,17.667 C18.2646022,16.912 18.0996022,16.328 17.7236022,15.004 L17.7236022,15.004 L17.6786022,14.845 C17.3476022,13.679 17.1666022,13.043 16.5686022,12.578 L16.5686022,12.578 C15.9306022,12.04 15.0806022,11.843 14.2336022,11.843 L14.2336022,11.843 C13.6576022,11.843 13.0826022,11.934 12.5776022,12.072 L12.5776022,12.072 Z M11.7956022,18.969 C11.3356022,18.581 11.1846022,18.052 10.8546022,16.886 L10.8546022,16.886 L10.8096022,16.727 C10.4936022,15.614 10.3726022,15.19 10.5616022,14.625 L10.5616022,14.625 C10.8386022,13.748 11.8836022,13.12 12.8036022,12.868 L12.8036022,12.868 C13.7236022,12.616 14.9496022,12.622 15.6466022,13.231 L15.6466022,13.231 C16.0376022,13.581 16.1966022,13.937 16.4976022,14.997 L16.4976022,14.997 L16.6776022,15.633 C16.9496022,16.588 17.0306022,17.078 16.8796022,17.577 L16.8796022,17.577 C16.5646022,18.52 15.5576022,19.082 14.6386022,19.334 L14.6386022,19.334 C14.2506022,19.44 13.8216022,19.516 13.3976022,19.516 L13.3976022,19.516 C12.8186022,19.516 12.2466022,19.373 11.7956022,18.969 L11.7956022,18.969 Z M3.27460219,14.621 C2.19260219,14.918 1.02360219,15.524 0.438602195,16.542 L0.438602195,16.542 C-0.216397805,17.52 -0.0293978055,18.383 0.300602195,19.549 L0.300602195,19.549 L0.481602195,20.185 C0.902602195,21.668 1.13160219,22.063 2.04460219,22.611 L2.04460219,22.611 C3.02760219,23.2 4.41560219,23.161 5.60660219,22.835 L5.60660219,22.835 C7.17460219,22.405 8.84860219,21.319 8.93760219,19.581 L8.93760219,19.581 C8.96160219,19.46 8.94660219,19.407 8.93160219,19.355 L8.93160219,19.355 C8.90260219,19.248 8.83260219,19.21 8.72460219,19.24 L8.72460219,19.24 L8.07560219,19.417 C7.91360219,19.462 7.72660219,19.627 7.73360219,19.854 L7.73360219,19.854 C7.58560219,20.98 6.44660219,21.691 5.36660219,21.988 L5.36660219,21.988 C4.50060219,22.225 3.52060219,22.265 2.72960219,21.738 L2.72960219,21.738 C2.16260219,21.38 1.98760219,20.971 1.65660219,19.806 L1.65660219,19.806 L1.52160219,19.328 C1.17560219,18.11 1.09360219,17.618 1.33660219,17.038 L1.33660219,17.038 C1.69760219,16.254 2.70360219,15.692 3.51560219,15.47 L3.51560219,15.47 C4.65060219,15.158 5.87760219,15.166 6.68060219,16.145 L6.68060219,16.145 C6.84860219,16.327 7.02560219,16.336 7.18760219,16.292 L7.18760219,16.292 L7.78260219,16.129 C7.89160219,16.098 7.91460219,15.978 7.89960219,15.925 L7.89960219,15.925 C7.86960219,15.819 7.75560219,15.621 7.50360219,15.348 L7.50360219,15.348 C7.01460219,14.768 6.10260219,14.385 4.93760219,14.385 L4.93760219,14.385 C4.42660219,14.385 3.86760219,14.459 3.27460219,14.621 L3.27460219,14.621 Z" id="path-11"></path>
    </defs>
    <g id="image_＆_icon" stroke="none" stroke-width="1" fill="none" fill-rule="evenodd">
        <g id="experience.Main2.web-Copy" transform="translate(-300.000000, -1016.000000)">
            <g id="Group-27" transform="translate(300.000000, 1016.000000)">
                <g id="Group-7">
                    <g id="Group-3">
                        <mask id="mask-2" fill="white">
                            <use xlink:href="#path-1"></use>
                        </mask>
                        <g id="Clip-2"></g>
                        <polygon id="Fill-1" fill-opacity="0.3" fill="#9AA2D0" mask="url(#mask-2)" points="-16.631 311.647 521.417 311.647 521.417 -6.877 -16.631 -6.877"></polygon>
                    </g>
                    <g id="Group-6">
                        <mask id="mask-4" fill="white">
                            <use xlink:href="#path-3"></use>
                        </mask>
                        <g id="Clip-5"></g>
                        <path d="M447.946,182.544 L483.634,182.544 L483.634,11.02 L447.946,11.02 L447.946,182.544 Z M410.538,182.544 L446.226,182.544 L446.226,11.02 L410.538,11.02 L410.538,182.544 Z M373.129,182.544 L408.816,182.544 L408.816,11.02 L373.129,11.02 L373.129,182.544 Z M335.72,182.544 L371.408,182.544 L371.408,11.02 L335.72,11.02 L335.72,182.544 Z M298.311,182.544 L333.999,182.544 L333.999,11.02 L298.311,11.02 L298.311,182.544 Z M260.902,182.544 L296.589,182.544 L296.589,11.02 L260.902,11.02 L260.902,182.544 Z M223.493,182.544 L259.181,182.544 L259.181,11.02 L223.493,11.02 L223.493,182.544 Z M187.516,182.544 L187.516,176.09 L186.083,176.09 L186.083,11.02 L221.771,11.02 L221.771,182.544 L187.516,182.544 Z M175.185,176.09 L175.185,182.544 L154.57,182.544 C157.144,173.897 161.804,159.672 156.255,151.342 C156.556,151.058 156.762,150.763 156.848,150.458 L156.9,150.458 C156.89,150.428 156.88,150.397 156.872,150.367 C156.887,150.284 156.9,150.199 156.9,150.115 C156.9,149.766 156.743,149.427 156.462,149.098 C154.388,142.829 151.409,136.771 151.064,130.138 C150.689,122.868 153.892,116.021 154.246,108.811 C154.504,103.589 154.977,99.147 153.166,93.717 C152.294,91.098 150.804,89.06 149.026,85.244 L148.675,85.244 L148.675,74.147 C150.66,73.056 152.819,71.071 154.736,67.5 C154.736,67.5 161.996,52.902 148.675,44.992 L148.675,11.02 L184.362,11.02 L184.362,176.09 L175.185,176.09 Z M175.185,209.779 L152.536,209.779 L151.187,211.278 C151.145,210.593 151.137,209.832 151.177,209.037 L151.526,209.08 C151.555,208.875 151.579,208.447 151.599,207.905 L175.185,207.905 L175.185,209.779 Z M142.655,42.368 C129.644,38.179 123.892,49.985 123.892,49.985 C118.424,52.65 120.25,57.536 120.554,58.253 C120.619,58.657 120.699,59.061 120.795,59.465 C120.817,59.543 120.831,59.627 120.856,59.702 C121.418,61.906 122.486,64.023 124.415,65.231 C124.415,65.231 125.087,69.258 122.735,73.15 C122.735,73.15 122.74,74.944 125.76,74.562 C126.628,74.453 127.9,80.694 130.04,81.329 C131.845,81.861 135.465,81.119 136.87,80.363 C137.45,82.133 137.648,83.298 137.659,84.456 C137.675,85.66 137.527,86.875 137.223,88.043 C137.162,88.28 137.075,88.51 137.004,88.743 C136.558,88.789 136.111,88.833 135.661,88.86 C135.239,89.857 134.874,90.593 134.583,91.418 C132.569,97.085 126.666,99.928 123.883,104.77 C123.034,106.244 122.472,107.905 122.397,109.885 C122.239,114.296 124.783,117.617 126.374,121.497 C126.863,122.688 127.228,123.978 127.354,125.512 C127.47,126.895 127.463,128.276 127.41,129.658 L126.193,132.479 C122.618,129.793 118.717,126.977 117.315,126.041 L117.321,126.037 C116.693,125.04 115.075,122.357 114.828,121.798 C114.207,120.383 113.384,118.23 113.384,118.23 C113.384,118.23 112.648,116.109 111.266,114.17 L111.266,11.02 L146.953,11.02 L146.953,44.067 C145.676,43.444 144.262,42.869 142.655,42.368 L142.655,42.368 Z M146.953,79.532 C146.747,78.198 146.583,76.803 146.401,75.337 C146.594,75.214 146.772,75.073 146.953,74.934 L146.953,79.532 Z M137.41,213.331 C136.439,213.331 135.652,214.117 135.652,215.09 L135.652,228.543 L134.105,230.262 C133.979,223.039 131.896,216.717 130.121,213.498 C129.66,212.666 129.288,210.385 129.379,207.905 L139.781,207.905 C139.792,208.057 139.799,208.212 139.832,208.36 C139.987,209.948 140.145,211.629 140.3,213.331 L137.41,213.331 Z M128.02,161.287 C127.746,166.784 124.022,175.55 121.413,182.544 L111.266,182.544 L111.266,126.717 C112.243,127.683 113.543,128.969 113.6,129.045 L113.608,129.037 C115.562,131.558 120.858,138.331 124.116,141.658 C124.401,142.123 124.77,142.542 125.232,142.893 C125.756,143.293 126.341,143.551 126.945,143.691 L126.945,155.577 C127.056,155.574 127.186,155.561 127.301,155.555 C127.215,158.57 128.288,155.859 128.02,161.287 L128.02,161.287 Z M118.406,247.709 L102.068,247.709 L102.068,257.047 L96.091,257.047 L100.2,207.905 L117.867,207.905 C117.901,208.112 117.946,208.314 118.001,208.512 C119.329,217.451 120.861,229.379 121.256,231.28 C121.567,232.783 122.537,237.071 123.504,242.044 L118.406,247.709 Z M109.057,115.364 C108.97,115.313 108.884,115.261 108.797,115.21 L108.236,113.17 C108.62,113.586 109.135,114.344 109.057,115.364 L109.057,115.364 Z M73.856,121.419 C73.959,121.183 74.048,120.947 74.12,120.709 C74.12,120.709 74.051,120.31 73.856,119.726 L73.856,11.02 L109.544,11.02 L109.544,112.27 C109.532,112.26 109.521,112.248 109.509,112.239 C109.509,112.239 108.578,110.905 108.348,109.906 C108.348,109.906 107.874,110.314 107.62,110.932 L106.786,107.901 C106.721,107.666 106.58,107.494 106.42,107.408 L106.325,107.019 C106.235,106.657 105.764,106.461 105.263,106.573 L105.326,106.557 C105.788,106.444 106.08,106.016 105.978,105.6 L105.143,102.193 C105.041,101.776 104.582,101.533 104.12,101.647 L96.823,103.437 C96.362,103.55 96.07,103.979 96.173,104.393 L97.01,107.8 C97.11,108.215 97.565,108.46 98.024,108.347 L98.956,108.118 L98.956,108.119 L98.112,108.326 C97.604,108.45 97.264,108.851 97.355,109.221 L97.479,109.729 L96.737,109.933 L96.738,109.934 L96.583,109.978 L100.317,123.56 L100.5,123.51 L100.5,123.509 L100.838,123.416 L101.161,124.735 C101.252,125.105 101.735,125.302 102.248,125.179 L107.353,123.925 C107.98,124.271 108.576,124.594 108.992,124.868 C109.221,125.019 109.394,125.133 109.544,125.232 L109.544,182.544 L102.32,182.544 L105.653,142.681 L105.657,142.681 L106.64,130.877 L73.856,130.877 L73.856,121.419 Z M72.135,130.877 L63.062,130.877 C66.59,128.868 70,126.519 72.135,124.048 L72.135,130.877 Z M48.626,128.62 C47.688,126.97 46.953,125.686 46.742,125.317 L47.959,107.214 C48.671,106.965 50.631,106.096 51.734,103.836 C51.928,103.439 52.073,103.012 52.196,102.572 C52.795,103.092 54.033,104.235 54.613,105.269 C55.39,106.661 57.613,109.61 57.613,109.61 L62.048,116.967 C58.614,118.89 54.228,122.478 48.626,128.62 L48.626,128.62 Z M16.918,128.84 C16.474,128.352 16.052,127.908 15.623,127.45 L15.522,126.844 L17.957,126.844 C17.662,127.41 17.309,128.088 16.918,128.84 L16.918,128.84 Z M22.614,54.668 C22.613,54.653 22.611,54.641 22.61,54.624 L23.17,54.624 L22.614,54.668 Z M524,11.02 L524,-35.336 L-62.258,-35.336 L-62.258,11.02 L72.135,11.02 L72.135,115.938 C70.163,111.353 65.773,101.168 64.938,99.385 C63.857,97.08 63.676,96.789 63.676,96.789 C63.676,96.789 59.918,87.292 57.177,81.725 C54.435,76.162 45.981,77.827 45.981,77.827 L45.88,77.838 L41.208,76.68 L41.455,76.217 L38.748,74.745 L38.119,75.293 L38.128,75.237 L37.953,75.389 C37.213,73.638 37.141,71.81 37.391,70.123 C38.245,69.604 39.102,69 39.822,68.324 C42.31,65.983 43.019,61.1 43.019,61.1 C43.019,61.1 46.284,57.238 45.93,55.883 C45.575,54.528 43.887,54.701 43.887,54.701 L43.345,54.659 C43.35,54.648 43.353,54.636 43.358,54.624 L43.82,54.624 C49.563,46.457 43.04,41.248 43.04,41.248 C41.429,39.883 39.875,38.893 38.395,38.185 C38.534,37.698 38.633,37.195 38.633,36.663 C38.633,33.613 36.16,31.14 33.11,31.14 C30.059,31.14 27.586,33.613 27.586,36.663 C27.586,36.922 27.628,37.17 27.663,37.419 C25.316,38.247 23.949,39.458 23.949,39.458 C15.683,45.575 21.951,54.624 21.951,54.624 L22.03,54.624 C22.041,54.65 22.051,54.671 22.062,54.697 C21.676,54.686 20.441,54.741 20.143,55.883 C19.788,57.238 23.054,61.1 23.054,61.1 C23.054,61.1 23.762,65.983 26.25,68.324 C26.902,68.936 27.666,69.489 28.437,69.973 C28.763,71.815 28.714,73.829 27.802,75.74 L27.289,75.293 L27.279,75.237 L27.27,75.229 L27.236,75.247 L26.659,74.745 L23.952,76.217 L24.217,76.713 L23.716,76.836 L19.598,77.851 L19.365,77.827 C19.365,77.827 10.911,76.162 8.17,81.725 C7.657,82.766 7.109,83.945 6.557,85.173 L-26.405,85.173 C-26.918,85.173 -27.326,85.517 -27.326,85.939 L-27.326,126.076 C-27.326,126.5 -26.918,126.844 -26.405,126.844 L-3.812,126.844 C-2.569,127.832 -1.181,128.784 0.27,129.683 L0.238,129.875 C0.238,130.234 0.295,130.564 0.375,130.877 L-40.42,130.877 L-39.435,142.681 L-39.433,142.681 L-36.099,182.544 L-57.783,182.544 L-57.783,207.905 L-33.979,207.905 L-29.868,257.047 L-57.783,257.047 L-57.783,316.802 L521.016,316.802 L521.016,257.047 L187.516,257.047 L187.516,249.972 L187.516,247.709 L187.516,237.355 L197.269,237.355 C198.241,237.355 199.029,236.567 199.029,235.596 L199.029,215.09 C199.029,214.117 198.241,213.331 197.269,213.331 L187.516,213.331 L187.516,207.905 L521.016,207.905 L521.016,182.544 L485.356,182.544 L485.356,11.02 L524,11.02 Z" id="Fill-4" fill-opacity="0.3" fill="#9AA2D0" mask="url(#mask-4)"></path>
                    </g>
                </g>
                <g id="Group-14" transform="translate(123.225288, 58.276400)">
                    <path d="M165.484612,166.0696 L53.3196116,198.4056 C48.3946116,199.8256 43.2516116,196.9836 41.8316116,192.0586 L0.365611598,48.2206 C-1.0543884,43.2966 1.7876116,38.1526 6.7126116,36.7326 L125.756612,2.4136 L170.381612,157.2066 C171.476612,161.0066 169.284612,164.9746 165.484612,166.0696" id="Fill-8" fill="#2F2E41"></path>
                    <path d="M175.046112,156.385 L57.5011116,190.271 C52.5761116,191.691 47.4331116,188.85 46.0131116,183.924 L6.0711116,45.374 C4.6511116,40.449 7.4931116,35.306 12.4181116,33.887 L129.963112,0 L175.046112,156.385 Z" id="Fill-10" fill="#A5A6AD"></path>
                    <path d="M175.046112,156.385 L60.8501116,171.774 C57.8091116,172.184 54.9271116,170.303 54.0771116,167.355 L12.4601116,22.991 C11.4131116,19.362 13.8351116,15.65 17.5791116,15.145 L129.963112,0 L175.046112,156.385 Z" id="Fill-12" fill="#FEF3EB"></path>
                </g>
                <g id="Group-17" transform="translate(210.160022, 132.420391) rotate(7.000000) translate(-210.160022, -132.420391) translate(205.200022, 122.336448)">
                    <mask id="mask-6" fill="white">
                        <use xlink:href="#path-5"></use>
                    </mask>
                    <g id="Clip-16"></g>
                    <polygon id="Fill-15" fill="#996A4E" mask="url(#mask-6)" points="-0.4822 1.2148 5.6808 -0.4732 11.3948 19.6618 5.2328 21.3508"></polygon>
                </g>
                <g id="Group-20" transform="translate(218.377046, 136.779361) rotate(7.000000) translate(-218.377046, -136.779361) translate(213.416046, 126.676342)">
                    <mask id="mask-8" fill="white">
                        <use xlink:href="#path-7"></use>
                    </mask>
                    <g id="Clip-19"></g>
                    <polygon id="Fill-18" fill="#2F3944" mask="url(#mask-8)" points="-0.4812 1.2144 5.6818 -0.4736 11.4118 19.7154 5.2488 21.4034"></polygon>
                </g>
                <g id="Group-23" transform="translate(224.974798, 130.267684) rotate(7.000000) translate(-224.974798, -130.267684) translate(220.014798, 120.168869)">
                    <mask id="mask-10" fill="white">
                        <use xlink:href="#path-9"></use>
                    </mask>
                    <g id="Clip-22"></g>
                    <polygon id="Fill-21" fill="#7A6F52" mask="url(#mask-10)" points="-0.4823 1.2147 5.6797 -0.4733 11.3947 19.6627 5.2327 21.3517"></polygon>
                </g>
                <g id="Group-26" transform="translate(221.908063, 154.281965) rotate(7.000000) translate(-221.908063, -154.281965) translate(192.153733, 142.747127)">
                    <mask id="mask-12" fill="white">
                        <use xlink:href="#path-11"></use>
                    </mask>
                    <g id="Clip-25"></g>
                    <polygon id="Fill-24" fill="#2F3944" mask="url(#mask-12)" points="-1.26359781 15.4661 57.5274022 -0.6409 60.0684022 8.3131 1.27840219 24.4201"></polygon>
                </g>
            </g>
        </g>
    </g>
</svg>