<?xml version="1.0" encoding="UTF-8"?>
<svg width="421px" height="316px" viewBox="0 0 421 316" version="1.1" xmlns="http://www.w3.org/2000/svg" xmlns:xlink="http://www.w3.org/1999/xlink">
    <title>Group 18 Copy</title>
    <defs>
        <path d="M20,0 C8.954,0 0,8.955 0,20 L0,296 C0,307.046 8.954,316 20,316 L401,316 C412.046,316 421,307.046 421,296 L421,20 C421,8.955 412.046,0 401,0 L20,0 Z" id="path-1"></path>
        <path d="M20,0 C8.954,0 0,8.955 0,20 L0,20 L0,296 C0,307.046 8.954,316 20,316 L20,316 L401,316 C412.046,316 421,307.046 421,296 L421,296 L421,20 C421,8.955 412.046,0 401,0 L401,0 L20,0 Z" id="path-3"></path>
        <path d="M20,0 C8.954,0 0,8.955 0,20 L0,20 L0,296 C0,307.046 8.954,316 20,316 L20,316 L401,316 C412.046,316 421,307.046 421,296 L421,296 L421,20 C421,8.955 412.046,0 401,0 L401,0 L20,0 Z" id="path-5"></path>
        <path d="M20,0 C8.954,0 0,8.955 0,20 L0,20 L0,296 C0,307.046 8.954,316 20,316 L20,316 L401,316 C412.046,316 421,307.046 421,296 L421,296 L421,20 C421,8.955 412.046,0 401,0 L401,0 L20,0 Z" id="path-7"></path>
        <path d="M20,0 C8.954,0 0,8.955 0,20 L0,296 C0,307.046 8.954,316 20,316 L401,316 C412.046,316 421,307.046 421,296 L421,20 C421,8.955 412.046,0 401,0 L20,0 Z" id="path-9"></path>
        <path d="M6.5435333,24.156101 C-7.687834,21.6383184 5.72837667,41.9561367 5.72837667,41.9561367 L5.72837667,41.9561367 C5.3371889,47.6666726 5.86387187,51.9749267 6.71836583,55.1633183 L6.71836583,55.1633183 C8.31371259,61.1202894 11.0378218,63.1604675 11.0378218,63.1604675 L11.0378218,63.1604675 C11.0378218,63.1604675 16.0861109,70.8457561 17.9972489,72.3777979 L17.9972489,72.3777979 C21.3933707,75.1223881 24.7501551,76.3174897 26.7727488,76.8310781 L26.7727488,76.8310781 C26.7727488,76.8376206 26.7661926,76.8419823 26.7661926,76.8572482 L26.7661926,76.8572482 C26.7661926,76.8572482 27.1016525,76.9564765 27.7157517,77.0393486 L27.7157517,77.0393486 C28.3287583,77.1636566 28.6849795,77.2018213 28.6849795,77.2018213 L28.6849795,77.2018213 C28.6860722,77.1800129 28.6860722,77.1756512 28.6860722,77.164747 L28.6860722,77.164747 C30.760023,77.3806504 34.33207,77.4155439 38.5127527,76.015443 L38.5127527,76.015443 C40.0917089,75.4789558 44.0440166,72.8205089 46.4370368,71.1499836 L46.4370368,71.1499836 C47.588746,70.3528857 48.3918829,69.7706008 48.3918829,69.7706008 L48.3918829,69.7706008 C48.3918829,69.7706008 51.6634365,68.0760862 55.3381975,63.1004943 L55.3381975,63.1004943 C57.6077422,60.0080598 60.0269873,55.6496462 61.9348472,49.6348828 L61.9348472,49.6348828 C61.9348472,49.6348828 80.9872213,35.7320125 66.7645956,33.2153203 L66.7645956,33.2153203 C66.7645956,33.2153203 67.0344933,32.4313075 67.274888,31.1140787 L67.274888,31.1140787 C68.5074573,24.8725077 69.7094309,6.39968205 43.0387296,0.889783703 L43.0387296,0.889783703 C43.0387296,0.879969912 43.0431004,0.874517806 43.0431004,0.85925191 L43.0431004,0.85925191 C42.7174749,0.802550007 42.4071471,0.755661895 42.0826143,0.708773783 L42.0826143,0.708773783 C41.7701011,0.635715563 41.4455683,0.573561554 41.1243135,0.510317124 L41.1243135,0.510317124 C41.1243135,0.526673442 41.11885,0.54302976 41.11885,0.55175313 L41.11885,0.55175313 C38.5673879,0.174467393 36.1994999,0 34.0097225,0 L34.0097225,0 C8.18914442,-0.00218084241 6.5435333,24.156101 6.5435333,24.156101" id="path-11"></path>
    </defs>
    <g id="image_＆_icon" stroke="none" stroke-width="1" fill="none" fill-rule="evenodd">
        <g id="Group-18-Copy">
            <mask id="mask-2" fill="white">
                <use xlink:href="#path-1"></use>
            </mask>
            <g id="Clip-54"></g>
            <g id="Group-106" mask="url(#mask-2)">
                <g id="Group-19">
                    <g id="Group-3">
                        <mask id="mask-4" fill="white">
                            <use xlink:href="#path-3"></use>
                        </mask>
                        <g id="Clip-2"></g>
                        <polygon id="Fill-1" fill-opacity="0.3" fill="#9AA2D0" mask="url(#mask-4)" points="0 316 421 316 421 0 0 0"></polygon>
                    </g>
                    <g id="Group-6">
                        <mask id="mask-6" fill="white">
                            <use xlink:href="#path-5"></use>
                        </mask>
                        <g id="Clip-5"></g>
                        <path d="M342.9004,208 L342.9004,135.487 L220.2534,135.487 L220.2534,134.424 C220.7994,134.298 221.3294,134.064 221.8034,133.703 C222.2214,133.385 222.5554,133.006 222.8144,132.584 C225.7624,129.574 230.5554,123.444 232.3234,121.164 L232.3314,121.171 C232.4144,121.06 235.4164,118.104 235.4164,118.104 L236.5014,117.391 C237.4354,116.774 239.3554,115.892 240.2794,115.086 L244.4174,116.224 L244.8714,114.572 L295.6924,114.572 C297.7744,114.572 299.4614,112.885 299.4614,110.804 L299.4614,71.684 C299.4614,69.603 297.7744,67.915 295.6924,67.915 L232.4404,67.915 C230.3584,67.915 228.6714,69.603 228.6714,71.684 L228.6714,110.804 C228.6714,112.492 229.7894,113.903 231.3184,114.383 C231.2854,114.461 231.2524,114.538 231.2194,114.612 C230.9964,115.117 229.5314,117.546 228.9634,118.448 L228.9694,118.452 C227.6994,119.299 224.1694,121.847 220.9334,124.277 L219.8374,121.735 C219.7844,120.436 219.7754,119.136 219.8824,117.836 C219.9984,116.44 220.3284,115.267 220.7704,114.184 C222.2114,110.654 224.5124,107.635 224.3694,103.622 C224.3014,101.82 223.7934,100.311 223.0254,98.969 C220.5064,94.564 215.1644,91.979 213.3404,86.824 C213.0774,86.074 212.7474,85.404 212.3654,84.497 C212.2294,84.49 212.0944,84.473 211.9584,84.462 C211.1604,82.777 209.9724,79.997 209.6854,78.761 C211.1284,78.688 214.2774,77.564 215.4244,76.306 C216.7834,74.811 214.8404,69.384 215.5634,69.061 C218.0804,67.939 217.2424,66.549 217.2424,66.549 C213.5964,64.641 212.2274,61.208 212.2274,61.208 C213.1484,59.379 212.9894,57.254 212.3994,55.295 C212.3374,55.015 212.2424,54.731 212.1174,54.446 C212.0614,54.295 212.0034,54.145 211.9424,53.996 C211.8414,53.298 210.9634,48.661 205.4804,49.162 C205.4804,49.162 195.4914,42.724 187.3864,52.068 C174.0124,67.194 189.8244,77.187 189.8244,77.187 C193.8874,79.585 197.0354,79.77 199.2614,79.282 C199.4904,79.307 199.7194,79.338 199.9514,79.343 C200.2374,79.982 200.5164,80.601 200.7884,81.209 L200.2704,81.209 C198.6614,84.68 197.3124,86.534 196.5244,88.915 C194.8844,93.855 195.3124,97.895 195.5464,102.645 C195.8664,109.203 198.7654,115.432 198.4254,122.043 C198.1834,126.728 196.5034,131.098 194.8854,135.487 L61.3504,135.487 L61.3504,208 L-4.9996,208 L-4.9996,316 L421.0004,316 L421.0004,208 L342.9004,208 Z" id="Fill-4" fill-opacity="0.3" fill="#9AA2D0" mask="url(#mask-6)"></path>
                    </g>
                </g>
                <g id="Group-105">
                    <mask id="mask-8" fill="white">
                        <use xlink:href="#path-7"></use>
                    </mask>
                    <g id="Clip-87"></g>
                    <polygon id="Fill-86" fill="#6E8EE1" mask="url(#mask-8)" points="134.3491 106 207.0001 106 170.6751 143.5 134.3491 181 98.0241 143.5 61.6991 106"></polygon>
                    <mask id="mask-10" fill="white">
                        <use xlink:href="#path-9"></use>
                    </mask>
                    <g id="Clip-90"></g>
                    <polygon id="Fill-89" fill="#6E8EE1" mask="url(#mask-10)" points="91 133 178 133 178 0 91 0"></polygon>
                    <g id="Group-11" mask="url(#mask-10)">
                        <g transform="translate(19.000000, 150.000000)">
                            <path d="M60.4766459,65 L174.124994,65 C177.432,65 180.245628,62.573866 180.747229,59.2880458 L188.941422,5.7601738 C189.359423,3.03232302 187.495549,0.478062738 184.780598,0.0578635015 C184.529797,0.0192878338 184.276255,0 184.021343,0 L44.7049824,0 C40.1974224,0 36.9753872,4.38660449 38.3006564,8.71672319 L54.0723199,60.245549 C54.9371026,63.0725943 57.5355623,65 60.4766459,65" id="Fill-91" stroke="none" fill="#3D4244" fill-rule="evenodd"></path>
                            <path d="M185,80 L50.0007819,80 C44.6746027,80 40.321078,75.8366054 40.0179845,70.587587 C39.9945637,70.1976992 39.9463443,69.8105669 39.8388838,69.4344562 L21.1614364,4.06006751 C20.4739652,1.65736722 18.2765374,0 15.7773938,0 L0,0" id="Stroke-92" stroke="#000931" stroke-width="5" fill="none"></path>
                            <path d="M168,79 C175.179146,79 181,84.8197795 181,92.0006923 C181,99.1802205 175.179146,105 168,105 C160.820854,105 155,99.1802205 155,92.0006923 C155,84.8197795 160.820854,79 168,79" id="Fill-93" stroke="none" fill="#000931" fill-rule="evenodd"></path>
                            <path d="M69,79 C76.1805304,79 82,84.8197795 82,92.0006923 C82,99.1802205 76.1805304,105 69,105 C61.8208542,105 56,99.1802205 56,92.0006923 C56,84.8197795 61.8208542,79 69,79" id="Fill-94" stroke="none" fill="#000931" fill-rule="evenodd"></path>
                            <path d="M100,45 C102.761091,45 105,42.7611793 105,40.0001968 L105,14.9998032 C105,12.2388207 102.761091,10 100,10 C97.2389088,10 95,12.2388207 95,14.9998032 L95,40.0001968 C95,42.7611793 97.2389088,45 100,45" id="Fill-95" stroke="none" fill="#000931" fill-rule="evenodd"></path>
                            <path d="M130,45 C132.761091,45 135,42.7611793 135,40.0001968 L135,14.9998032 C135,12.2388207 132.761091,10 130,10 C127.238909,10 125,12.2388207 125,14.9998032 L125,40.0001968 C125,42.7611793 127.238909,45 130,45" id="Fill-96" stroke="none" fill="#000931" fill-rule="evenodd"></path>
                            <path d="M75,40 C77.7610912,40 80,37.7612146 80,35.0002755 L80,19.9997245 C80,17.2387854 77.7610912,15 75,15 C72.2389088,15 70,17.2387854 70,19.9997245 L70,35.0002755 C70,37.7612146 72.2389088,40 75,40" id="Fill-100" stroke="none" fill="#000931" fill-rule="evenodd"></path>
                            <path d="M155,40 C157.761091,40 160,37.7612146 160,35.0002755 L160,19.9997245 C160,17.2387854 157.761091,15 155,15 C152.238909,15 150,17.2387854 150,19.9997245 L150,35.0002755 C150,37.7612146 152.238909,40 155,40" id="Fill-101" stroke="none" fill="#000931" fill-rule="evenodd"></path>
                        </g>
                    </g>
                    <polygon id="Fill-103" fill="#FFFFFF" mask="url(#mask-10)" points="102.611 107 167.588 107 167.588 104.175 102.611 104.175"></polygon>
                    <path d="M162.6641,65.6875 L123.5941,83.9075 C121.4211,84.9195 117.8531,85.7695 114.5051,86.0705 C111.0821,86.3765 109.2521,85.9915 108.6431,85.6645 C108.7681,85.4925 109.0031,85.2215 109.4351,84.8405 L110.4501,83.9485 L104.8411,76.9825 L107.3821,75.7975 L117.6851,79.7195 L132.2581,72.7965 L118.4151,58.7625 L122.5151,58.5865 L141.8791,68.3265 L154.0501,62.6515 C158.4951,60.5785 162.2391,60.3975 165.1811,62.1115 L165.1811,62.1115 C165.9221,62.5425 166.1811,62.9195 166.174238,63.0675 C166.174238,63.0785 166.0891,64.0905 162.6641,65.6875 M166.6031,59.6705 C161.8851,56.9195 156.5221,58.3805 152.8561,60.0905 L141.9261,65.1875 L123.1281,55.7335 L111.9331,56.2135 L127.4561,71.9515 L117.5631,76.6505 L107.2711,72.7335 L100.3801,75.9465 L106.6071,83.6795 C105.9491,84.4645 105.3531,85.5705 105.8941,86.7305 C106.6011,88.2475 108.6911,89.0105 112.1191,89.0105 C112.8211,89.0105 113.5811,88.9785 114.3951,88.9145 C118.1581,88.6175 122.2371,87.6565 124.7881,86.4665 L163.8581,68.2485 C167.2321,66.6745 168.9141,65.0225 168.9971,63.1965 C169.0401,62.2495 168.6601,60.8695 166.6031,59.6705" id="Fill-104" fill="#FFFFFF" mask="url(#mask-10)"></path>
                </g>
            </g>
            <g id="Group-15" mask="url(#mask-2)">
                <g transform="translate(202.000000, 50.000000)">
                    <g id="Group-13" transform="translate(30.000000, 0.000000)">
                        <g id="Group-12">
                            <path d="M105.625505,113.923667 C105.625505,113.923667 122.500122,98.3153782 112.275697,92.989761 C112.275697,92.989761 122.765649,89.9300391 118.223281,78.756493 C113.676543,67.5993033 112.594767,49.9726445 115.477318,47.8081584 C118.369704,45.6447627 119.374991,39.1752937 116.163536,29.8085755 C112.946617,20.4429478 110.584193,16.1041618 106.940027,15.1380487 C103.289306,14.1675738 98.4398887,13.9080535 98.4398887,13.9080535 L76.4241034,85.7319175 L79.3645678,113.238883 L105.625505,113.923667 Z" id="Fill-7" fill="#3F3D56"></path>
                            <path d="M27.4331896,109.315983 C27.4331896,109.315983 13.8465172,87.9448183 27.1250473,85.74871 C27.1250473,85.74871 16.4045356,79.2683367 25.314438,69.2877114 C34.2145061,59.3005436 41.4536652,41.5822895 38.961209,38.4625944 C36.4567332,35.3178196 37.5385094,28.3740174 44.3515142,19.8000355 C51.1524993,11.2325961 55.2730834,7.54806282 59.6952535,7.71489726 C64.1185163,7.87191792 69.6443167,9.14989157 69.6443167,9.14989157 L69.7787192,89.7091198 L57.0891562,116.933666 L27.4331896,109.315983 Z" id="Fill-10" fill="#3F3D56"></path>
                            <path d="M130,140 C130,140 129.512654,133.988508 125.095948,127.438348 C120.667221,120.872922 108.854006,118.698622 108.854006,118.698622 L83.7666322,114.322761 C69.9909222,97.3983339 86.2208437,75.0065345 86.2208437,75.0065345 L65.259517,75.0065345 L64.7568735,75.0065345 L43.7900833,75.0065345 C43.7900833,75.0065345 60.0210976,97.3983339 46.2486656,114.322761 L21.1514571,118.698622 C21.1514571,118.698622 9.34807642,120.872922 4.92590631,127.438348 C0.492809172,133.988508 0,140 0,140 L63.9570147,140 L66.0539123,140 L130,140 Z" id="Fill-13" fill="#FFB8B8"></path>
                            <path d="M44.2649721,46.1247661 C44.2649721,46.1247661 31.9217961,19.2022666 58.6897479,5.50221455 C58.6897479,5.50221455 84.1278799,-12.8266755 111.578771,17.4216087 C111.578771,17.4216087 128.3168,34.8105557 108.010002,55.3508199 L44.2649721,46.1247661 Z" id="Fill-16" fill="#3F3D56"></path>
                        </g>
                        <g id="Group-22" transform="translate(37.959757, 20.636716)">
                            <mask id="mask-12" fill="white">
                                <use xlink:href="#path-11"></use>
                            </mask>
                            <g id="Clip-22"></g>
                            <path d="M6.5435333,24.156101 C-7.687834,21.6383184 5.72837667,41.9561367 5.72837667,41.9561367 L5.72837667,41.9561367 C5.3371889,47.6666726 5.86387187,51.9749267 6.71836583,55.1633183 L6.71836583,55.1633183 C8.31371259,61.1202894 11.0378218,63.1604675 11.0378218,63.1604675 L11.0378218,63.1604675 C11.0378218,63.1604675 16.0861109,70.8457561 17.9972489,72.3777979 L17.9972489,72.3777979 C21.3933707,75.1223881 24.7501551,76.3174897 26.7727488,76.8310781 L26.7727488,76.8310781 C26.7727488,76.8376206 26.7661926,76.8419823 26.7661926,76.8572482 L26.7661926,76.8572482 C26.7661926,76.8572482 27.1016525,76.9564765 27.7157517,77.0393486 L27.7157517,77.0393486 C28.3287583,77.1636566 28.6849795,77.2018213 28.6849795,77.2018213 L28.6849795,77.2018213 C28.6860722,77.1800129 28.6860722,77.1756512 28.6860722,77.164747 L28.6860722,77.164747 C30.760023,77.3806504 34.33207,77.4155439 38.5127527,76.015443 L38.5127527,76.015443 C40.0917089,75.4789558 44.0440166,72.8205089 46.4370368,71.1499836 L46.4370368,71.1499836 C47.588746,70.3528857 48.3918829,69.7706008 48.3918829,69.7706008 L48.3918829,69.7706008 C48.3918829,69.7706008 51.6634365,68.0760862 55.3381975,63.1004943 L55.3381975,63.1004943 C57.6077422,60.0080598 60.0269873,55.6496462 61.9348472,49.6348828 L61.9348472,49.6348828 C61.9348472,49.6348828 80.9872213,35.7320125 66.7645956,33.2153203 L66.7645956,33.2153203 C66.7645956,33.2153203 67.0344933,32.4313075 67.274888,31.1140787 L67.274888,31.1140787 C68.5074573,24.8725077 69.7094309,6.39968205 43.0387296,0.889783703 L43.0387296,0.889783703 C43.0387296,0.879969912 43.0431004,0.874517806 43.0431004,0.85925191 L43.0431004,0.85925191 C42.7174749,0.802550007 42.4071471,0.755661895 42.0826143,0.708773783 L42.0826143,0.708773783 C41.7701011,0.635715563 41.4455683,0.573561554 41.1243135,0.510317124 L41.1243135,0.510317124 C41.1243135,0.526673442 41.11885,0.54302976 41.11885,0.55175313 L41.11885,0.55175313 C38.5673879,0.174467393 36.1994999,0 34.0097225,0 L34.0097225,0 C8.18914442,-0.00218084241 6.5435333,24.156101 6.5435333,24.156101" id="Fill-20" fill="#FFB8B8" mask="url(#mask-12)"></path>
                        </g>
                    </g>
                    <g id="Group-14" transform="translate(21.000000, 9.000000)">
                        <path d="M53.7744097,64.4171891 C53.7744097,64.4171891 57.2248653,15.8630905 74.1846946,11.8780301 C84.0711991,9.54387652 76.4959105,7.27401573 76.4959105,7.27401573 C76.4959105,7.27401573 108.135999,23.2447693 109.965984,67.3822833 C109.965984,67.3822833 125.430834,38.3688202 121.914905,31.342386 C118.680512,24.8618953 104.03299,6.81524886 94.859056,5.32670837 C85.6960341,3.83816787 68.0290906,6.59403823 59.5142567,15.9437289 C49.7958009,26.6097862 52.8414118,57.4561374 53.7744097,64.4171891" id="Fill-23" fill="#3F3D56"></path>
                        <path d="M75.0756803,0 C75.0756803,0 77.7862849,34.1350885 84.5300595,33.4562007 L79.2758079,22.2845191 C79.2758079,22.2845191 90.1182261,47.6213089 94.2212346,46.1436655 L87.4938284,31.9741984 C87.4938284,31.9741984 109.48639,73.1629638 116.877262,69.8731368 C116.877262,69.8731368 106.349117,55.1381115 110.846058,54.8569669 C116.985293,54.5169782 109.426373,2.62510545 75.0756803,0" id="Fill-26" fill="#3F3D56"></path>
                        <polygon id="Fill-32" fill="#FFB8B8" points="90.3017703 99.9498275 90.1348128 99.9716216 73.4881652 108.872353 56.8415177 99.9716216 56.6636479 99.9498275 37.544283 103.475031 51.1671442 164.425643 73.4881652 164.425643 95.798274 164.425643 109.426591 103.475031"></polygon>
                        <path d="M133.335346,284.654165 C133.335346,284.492888 133.265507,284.346867 133.183665,284.196488 C132.373976,280.750832 127.973063,263.701268 115.98704,243.556935 C115.98704,243.556935 106.94187,227.613424 117.985074,196.454327 C121.69415,185.982237 123.205498,181.744365 123.762023,180.19698 C123.72383,180.0466 118.1684,152.69821 111.315503,103.772522 L102.055362,102.058412 C102.055362,102.058412 109.582637,162.46308 73.0069347,162.032645 C36.4476012,162.46308 43.9639636,102.058412 43.9639636,102.058412 L34.6929103,103.772522 C27.8301921,152.655712 22.2856745,180.013909 22.2529378,180.19698 C22.7985506,181.744365 24.3098981,185.982237 28.0255215,196.454327 C39.0883673,227.613424 30.0279206,243.556935 30.0279206,243.556935 C18.0418979,263.701268 13.6464409,280.750832 12.8302041,284.196488 C12.7450885,284.346867 12.6861623,284.492888 12.6861623,284.654165 C12.6861623,284.697753 12.6959834,284.714099 12.7014395,284.751149 C12.6959834,284.800186 12.6861623,284.837236 12.6861623,284.837236 L12.723264,284.837236 C13.5329535,288.632687 40.0497371,291.668612 72.7745036,291.702393 L73.0069347,291.702393 L73.2393658,291.702393 C105.959767,291.668612 132.482007,288.632687 133.297153,284.837236 L133.335346,284.837236 C133.335346,284.837236 133.324433,284.800186 133.324433,284.751149 C133.324433,284.714099 133.335346,284.697753 133.335346,284.654165" id="Fill-41" fill="#B8946F"></path>
                        <path d="M102.067038,102.60806 C102.067038,102.60806 103.686417,112.879643 102.730503,123.636146 C101.792049,134.398098 105.830675,150.703392 105.830675,150.703392 L114.021415,208.407764 L114.836561,214.105845 C114.836561,214.105845 138.858803,238.035823 148,229.770391 L141.784379,142.540393 L141.769101,130.408679 C141.769101,130.408679 138.356839,102.365055 102.067038,102.60806" id="Fill-44" fill="#B8946F"></path>
                        <g id="Group-52" transform="translate(87.022660, 136.722553)" fill="#FFB8B8">
                            <path d="M12.727706,22.6397637 C12.727706,22.6397637 11.1574323,12.0445374 5.4012169,6.30831691 C5.4012169,6.30831691 3.58105249,2.65779667 3.48938953,0 C3.48938953,0 -1.66119561,3.33123593 0.552901265,7.58109531 C0.552901265,7.58109531 4.75302885,11.3013568 1.54591662,16.5755413 C1.54591662,16.5755413 0.353206968,22.6724549 2.97105734,26.1987485 C5.6009112,29.7086965 8.57559236,29.8710629 10.5365249,29.3098635 C10.5365249,29.3098635 13.3005995,25.8380553 12.727706,22.6397637" id="Fill-50"></path>
                        </g>
                    </g>
                    <g id="Group-17" transform="translate(0.000000, 113.000000)">
                        <path d="M111.259473,70.5692976 C111.29108,72.3466398 109.706408,73.804191 107.727203,73.8368227 L78.887046,74.2898335 C76.8969423,74.3208603 75.2686756,72.9057304 75.2414288,71.1305636 L74.3889272,20.8722415 C74.3673526,19.1014256 75.947665,17.6373481 77.9323194,17.5992777 L106.767027,17.1476235 C108.75713,17.1261174 110.385397,18.5358087 110.407194,20.3066246 L111.259473,70.5692976 Z" id="Fill-53" fill="#4F5485"></path>
                        <path d="M113.944806,82.1466047 C113.944806,82.1466047 120.016475,89.073236 121.40824,92.1689006 C129.140872,109.228776 135.877362,126.059141 146.732473,141.586411 C149.822257,145.993872 151.548612,148.86329 157.706381,148.653359 C163.994934,148.436902 168.734782,144.729936 171.991315,139.654612 C171.991315,139.654612 172.412005,131.387904 167.39751,123.749901 C162.392825,116.102108 134.372251,85.3923754 131.271569,82.7220111 C128.165437,80.047296 126.654877,74.4400749 126.654877,74.4400749 C126.654877,74.4400749 114.812343,79.8863127 113.944806,82.1466047" id="Fill-59" fill="#FFB8B8"></path>
                        <path d="M115.579067,83.998021 C115.411226,83.6586509 108.131981,74.6066055 108.131981,74.6066055 L105.27325,72.3832962 C102.421058,70.1284427 95.7390616,66.618355 94.3636449,63.9066572 C92.9991269,61.1938716 99.5623278,41.4527552 99.5623278,41.4527552 C107.565248,43.4987654 120.879107,55.4887553 120.879107,55.4887553 C120.879107,55.4887553 121.959169,61.2743633 122.885559,65.0911894 C123.252846,66.5976882 126.218384,73.8800054 127.399803,76.5917032 L115.579067,83.998021 Z" id="Fill-62" fill="#FFB8B8"></path>
                        <path d="M102.722517,42.8418884 C104.119731,43.7294718 104.534972,45.3599712 103.639098,46.5173104 C102.755213,47.652895 100.900253,47.8682645 99.4757921,46.9806811 L88.4811772,40.0007514 C87.0785137,39.1283961 86.663273,37.4750545 87.5536973,36.3449085 C88.4484811,35.1995343 90.3143396,34.9830771 91.7104638,35.8717482 L102.722517,42.8418884 Z" id="Fill-65" fill="#FFB8B8"></path>
                        <path d="M100.571003,49.0793372 C102.118619,50.0637281 102.658105,51.7921228 101.77422,52.933146 C100.861999,54.0741693 98.8827935,54.1927313 97.3242785,53.2126913 L85.0774022,45.4517752 C83.5134379,44.4554193 82.9695924,42.7389897 83.8698256,41.5925278 C84.75916,40.4515045 86.7438144,40.3220653 88.3077788,41.3118948 L100.571003,49.0793372 Z" id="Fill-68" fill="#FFB8B8"></path>
                        <path d="M98.2092534,54.3532795 C99.4222794,55.1233886 99.6816686,56.6733964 98.7912443,57.820946 C97.8855618,58.9543552 96.1875434,59.2621813 94.9788769,58.4866335 L85.4762949,52.4747788 C84.2523702,51.7003188 83.9984303,50.150311 84.8997533,49.0147264 C85.7890877,47.8682645 87.4990948,47.577842 88.7066714,48.3316352 L98.2092534,54.3532795 Z" id="Fill-71" fill="#FFB8B8"></path>
                        <path d="M98.3652139,60.8711437 C99.3678949,61.4954977 99.4441858,62.9280312 98.5428628,64.0734054 C97.648079,65.2198673 96.1211703,65.6342904 95.1184893,65.0001469 L87.2943081,60.0477361 C86.2861777,59.4125048 86.2044374,57.9864977 87.1101199,56.8237199 C87.9950949,55.6990125 89.5329023,55.2791508 90.5246846,55.9089434 L98.3652139,60.8711437 Z" id="Fill-74" fill="#FFB8B8"></path>
                        <path d="M10.8147076,170.37544 C10.8147076,170.37544 13.6461914,161.177639 13.6886964,157.528323 C13.7322912,153.895322 12.7448684,106.979578 17.1566647,98.7661688 L17.7768011,91.8025549 C17.7768011,91.8025549 26.9502422,79.8430213 41.4891164,91.4903779 C41.4891164,91.4903779 45.2306422,99.8103845 43.6612285,109.352994 C42.1027135,118.890164 28.5076673,160.003984 26.690853,163.820811 C24.8849373,167.63111 25.7742718,173.888791 25.7742718,173.888791 C25.7742718,173.888791 12.5399728,172.398608 10.8147076,170.37544" id="Fill-77" fill="#FFB8B8"></path>
                        <path d="M55.9027644,0 C55.9027644,0 54.2962951,9.88741798 55.1213271,20.2523471 C55.9572579,30.5911709 51.9824997,46.3077058 51.9824997,46.3077058 L43.7692347,101.904581 L42.949652,107.378012 C42.949652,107.378012 24.4796145,106.898325 15.8031544,99.0036191 L17.6951698,38.6816676 L17.7987075,26.9962406 C17.7987075,26.9962406 21.2546873,0 55.9027644,0" id="Fill-83" fill="#B8946F"></path>
                    </g>
                </g>
            </g>
            <g id="Group-16" mask="url(#mask-2)">
                <g transform="translate(170.000000, 189.000000)">
                    <path d="M62,30.9992777 C62,34.8924253 56.806729,37.7238053 55.4040402,41.1084601 C53.9493464,44.6159044 55.5643887,50.2757753 52.9193597,52.9208043 C50.2728861,55.5672779 44.6159044,53.9493464 41.1084601,55.4025956 C37.7165824,56.806729 34.8909807,62 31.0007223,62 C27.1090193,62 24.2761947,56.806729 20.8915399,55.4025956 C17.3840956,53.9493464 11.7242247,55.5643887 9.07775111,52.9193597 C6.4327221,50.2728861 8.05065356,44.6159044 6.59595983,41.1084601 C5.19327105,37.7151378 0,34.8895361 0,30.9992777 C0,27.1090193 5.19327105,24.2747501 6.59595983,20.8900953 C8.05065356,17.382651 6.43561127,11.7227801 9.08064028,9.07775111 C11.7271139,6.43127752 17.3840956,8.04920898 20.8915399,6.59595983 C24.2761947,5.19327105 27.1090193,0 31.0007223,0 C34.8909807,0 37.7238053,5.19327105 41.1084601,6.59595983 C44.6159044,8.04920898 50.2757753,6.43416669 52.9222489,9.08064028 C55.5672779,11.7256693 53.9493464,17.382651 55.4040402,20.8900953 C56.806729,24.2747501 62,27.1090193 62,30.9992777" id="Fill-97" fill="#FF6363"></path>
                    <path d="M21.4992388,18 C24.5381315,18 27,20.4618685 27,23.4992388 C27,26.536609 24.5381315,29 21.4992388,29 C18.4618685,29 16,26.536609 16,23.4992388 C16,20.4618685 18.4618685,18 21.4992388,18" id="Fill-98" fill="#FFFFFF"></path>
                    <path d="M42.5007612,33 C45.5381315,33 48,35.4615278 48,38.4984777 C48,41.5354276 45.5381315,44 42.5007612,44 C39.4618685,44 37,41.5354276 37,38.4984777 C37,35.4615278 39.4618685,33 42.5007612,33" id="Fill-99" fill="#FFFFFF"></path>
                    <path d="M19.6639144,40.7128483 L39.4909322,18.8497552 C40.4463303,17.7959237 42.0821094,17.7105932 43.1449361,18.6591838 C44.2063305,19.6091966 44.2908409,21.2333202 43.3354428,22.2871517 L23.5098574,44.1502448 C22.5530269,45.2040763 20.9172478,45.2894068 19.8558535,44.3408162 C18.7944592,43.3908034 18.7085163,41.7666798 19.6639144,40.7128483" id="Fill-102" fill="#FFFFFF"></path>
                </g>
            </g>
        </g>
    </g>
</svg>