<?xml version="1.0" encoding="UTF-8"?>
<svg width="421px" height="315px" viewBox="0 0 421 315" version="1.1" xmlns="http://www.w3.org/2000/svg" xmlns:xlink="http://www.w3.org/1999/xlink">
    <title>Group 39</title>
    <defs>
        <path d="M20,0 C8.954,0 1.42108547e-14,8.954 1.42108547e-14,19.999 L1.42108547e-14,19.999 L1.42108547e-14,295 C1.42108547e-14,306.045 8.954,314.999 20,314.999 L20,314.999 L401,314.999 C412.045,314.999 420.999,306.045 420.999,295 L420.999,295 L420.999,19.999 C420.999,8.954 412.045,0 401,0 L401,0 L20,0 Z" id="path-1"></path>
        <path d="M20,0 C8.954,0 1.42108547e-14,8.954 1.42108547e-14,19.999 L1.42108547e-14,19.999 L1.42108547e-14,295 C1.42108547e-14,306.045 8.954,314.999 20,314.999 L20,314.999 L401,314.999 C412.045,314.999 420.999,306.045 420.999,295 L420.999,295 L420.999,19.999 C420.999,8.954 412.045,0 401,0 L401,0 L20,0 Z" id="path-3"></path>
        <path d="M20,0 C8.954,0 1.42108547e-14,8.954 1.42108547e-14,19.999 L1.42108547e-14,19.999 L1.42108547e-14,295 C1.42108547e-14,306.045 8.954,314.999 20,314.999 L20,314.999 L401,314.999 C412.045,314.999 420.999,306.045 420.999,295 L420.999,295 L420.999,19.999 C420.999,8.954 412.045,0 401,0 L401,0" id="path-5"></path>
        <path d="M20,0 C8.954,0 1.42108547e-14,8.954 1.42108547e-14,19.999 L1.42108547e-14,19.999 L1.42108547e-14,295 C1.42108547e-14,306.045 8.954,314.999 20,314.999 L20,314.999 L401,314.999 C412.045,314.999 420.999,306.045 420.999,295 L420.999,295 L420.999,19.999 C420.999,8.954 412.045,0 401,0 L401,0 L20,0 Z" id="path-7"></path>
        <path d="M20,0 C8.954,0 1.42108547e-14,8.954 1.42108547e-14,19.999 L1.42108547e-14,295 C1.42108547e-14,306.045 8.954,314.999 20,314.999 L401,314.999 C412.045,314.999 420.999,306.045 420.999,295 L420.999,19.999 C420.999,8.954 412.045,0 401,0" id="path-9"></path>
        <path d="M185.089353,181 C186.493384,181 188.265866,181.425983 189.12028,182.705157 C189.609916,183.375958 189.609916,184.106739 189.609916,185.445894 L189.609119,186.132176 C189.603139,187.310669 189.552312,187.907826 189.12028,188.552633 C188.265866,189.831807 186.493384,190.259014 185.089353,190.259014 C183.682874,190.259014 181.850412,189.770602 181.057202,188.552633 C180.62877,187.883056 180.567566,187.273459 180.567566,185.994286 L180.567566,185.994286 L180.567566,185.203524 C180.567566,183.984331 180.62877,183.314754 181.057202,182.645176 C181.911616,181.488412 183.682874,181 185.089353,181 Z M185.089353,181.913171 C184.050101,181.913171 182.767255,182.279174 182.217639,183.132364 C181.850412,183.680756 181.850412,184.167944 181.850412,185.445894 L181.850501,185.871203 C181.851846,187.044617 181.873363,187.612456 182.217639,188.125426 C182.828459,189.101025 184.050101,189.344619 185.089353,189.344619 C186.127381,189.344619 187.349022,189.039821 187.959843,188.125426 C188.265866,187.639462 188.325846,187.089846 188.325846,185.994286 L188.325846,185.994286 L188.325846,185.263504 C188.325846,184.046759 188.265866,183.618328 187.959843,183.132364 C187.410227,182.279174 186.127381,181.913171 185.089353,181.913171 Z M170,185.385913 L170,186.116695 C170,187.821852 170.121185,188.309039 170.914395,189.161006 C171.771258,190.075401 173.236493,190.440179 174.581768,190.440179 C176.353025,190.440179 178.429081,189.770602 179.039902,187.943036 C179.101106,187.821852 179.101106,187.760647 179.101106,187.700667 C179.101106,187.578258 179.039902,187.518277 178.918717,187.518277 L178.185487,187.518277 C178.001874,187.518277 177.757056,187.639462 177.697076,187.883056 C177.20744,189.039821 175.803409,189.465804 174.581768,189.465804 C173.602496,189.465804 172.565692,189.22221 171.893667,188.431448 C171.404031,187.883056 171.34405,187.395868 171.34405,186.05549 L171.34405,185.507098 C171.34405,184.106739 171.404031,183.558347 171.831238,183.009955 C172.443283,182.279174 173.664924,181.974375 174.581768,181.974375 C175.863389,181.974375 177.147459,182.339154 177.697076,183.618328 C177.818261,183.863146 178.001874,183.92435 178.185487,183.92435 L178.857513,183.92435 C178.979922,183.92435 179.039902,183.801941 179.039902,183.740737 C179.039902,183.618328 178.979922,183.375958 178.796308,183.009955 C178.307896,181.913171 176.780232,181 174.581768,181 C173.358902,181 171.953647,181.304798 171.036804,182.217969 C170.05998,183.069936 170,184.046759 170,185.385913 Z M218.199754,189.648193 C218.199754,189.952992 218.443347,190.196585 218.74937,190.196585 L225.898053,190.196585 C226.080443,190.196585 226.262832,190.075401 226.262832,189.831807 L226.262832,189.648193 C226.262832,189.465804 226.141647,189.28219 225.898053,189.28219 L219.664989,189.28219 C219.543804,189.28219 219.482599,189.22221 219.482599,189.101025 L219.482599,181.488412 C219.482599,181.304798 219.30021,181.122409 219.115373,181.122409 L218.565756,181.061204 C218.383367,181.061204 218.199754,181.243594 218.199754,181.425983 L218.199754,189.648193 Z M215.268059,181.061204 C215.083221,181.061204 214.900832,181.183613 214.900832,181.425983 L214.900832,189.770602 C214.900832,189.952992 215.083221,190.136605 215.268059,190.136605 L215.87888,190.136605 C216.061269,190.136605 216.244882,189.952992 216.244882,189.770602 L216.244882,181.422311 C216.244882,181.178717 216.061269,181.061204 215.87888,181.061204 L215.268059,181.061204 Z M227.852924,181.122409 C227.668087,181.122409 227.485697,181.243594 227.485697,181.488412 L227.485697,190.014196 C227.485697,190.196585 227.608106,190.378975 227.852924,190.378975 L235.242754,190.378975 C235.428815,190.378975 235.55,190.259014 235.55,190.075401 L235.55,189.710622 C235.55,189.527008 235.428815,189.404599 235.242754,189.404599 L228.889728,189.404599 C228.768543,189.404599 228.708563,189.28219 228.708563,189.22221 L228.708563,186.360289 C228.708563,186.239104 228.768543,186.176675 228.889728,186.176675 L234.144745,186.176675 C234.31979,186.176675 234.449543,185.994286 234.449543,185.873101 L234.449543,185.507098 C234.449543,185.325933 234.26593,185.203524 234.144745,185.203524 L228.889728,185.203524 C228.768543,185.203524 228.708563,185.142319 228.708563,185.01991 L228.708563,182.279174 C228.708563,182.156765 228.829748,182.096784 228.889728,182.096784 L235.242754,182.096784 C235.428815,182.096784 235.55,181.974375 235.55,181.790762 L235.55,181.425983 C235.55,181.243594 235.428815,181.122409 235.242754,181.122409 L227.852924,181.122409 Z M212.090322,181.122409 C211.845504,181.122409 211.663115,181.243594 211.54193,181.425983 L207.569759,187.700667 C207.569759,187.760647 207.508555,187.760647 207.508555,187.760647 C207.508555,187.760647 207.44735,187.760647 207.44735,187.700667 L203.355218,181.425983 C203.171605,181.183613 203.049196,181.122409 202.805602,181.122409 L202.683193,181.122409 L202.133577,181.122409 C201.949964,181.122409 201.76635,181.304798 201.76635,181.488412 L201.76635,189.710622 C201.76635,189.893011 201.949964,190.075401 202.133577,190.075401 L202.805602,190.075401 C202.987992,190.075401 203.171605,189.952992 203.171605,189.710622 L203.171605,183.435938 C203.171605,183.375958 203.23281,183.375958 203.23281,183.375958 C203.23281,183.375958 203.29279,183.375958 203.29279,183.435938 L206.715345,188.613838 C206.897734,188.796227 207.020143,188.917412 207.264961,188.917412 L207.753373,188.917412 C207.99819,188.917412 208.18058,188.796227 208.302989,188.613838 L211.60191,183.497143 C211.60191,183.435938 211.663115,183.435938 211.663115,183.435938 C211.724319,183.435938 211.724319,183.497143 211.724319,183.497143 L211.724319,189.770602 C211.724319,189.952992 211.845504,190.136605 212.090322,190.136605 L212.639938,190.136605 C212.823552,190.136605 213.007165,190.014196 213.007165,189.770602 L213.007165,181.488412 C213.007165,181.304798 212.823552,181.122409 212.639938,181.122409 L212.090322,181.122409 Z M193.642067,181.122409 C192.298017,181.122409 190.953966,181.366003 190.953966,183.740737 C190.953966,186.116695 192.847633,186.239104 193.763252,186.239104 L197.734199,186.239104 C198.528633,186.239104 199.199434,186.481473 199.199434,187.700667 C199.199434,188.917412 198.589838,189.22221 197.734199,189.22221 L191.136356,189.22221 C190.953966,189.22221 190.831557,189.344619 190.831557,189.527008 L190.831557,190.014196 C190.831557,190.196585 191.013947,190.318994 191.136356,190.318994 L197.672994,190.318994 C199.078249,190.318994 200.483504,190.259014 200.483504,187.760647 C200.483504,185.325933 198.589838,185.203524 197.672994,185.203524 L193.702048,185.203524 C192.907613,185.203524 192.175608,184.897501 192.175608,183.680756 C192.175608,182.461563 192.847633,182.156765 193.702048,182.156765 L199.872683,182.156765 C200.055073,182.156765 200.177482,182.03558 200.177482,181.85319 L200.177482,181.425983 C200.177482,181.243594 200.055073,181.122409 199.872683,181.122409 L193.642067,181.122409 Z" id="path-11"></path>
    </defs>
    <g id="image_＆_icon" stroke="none" stroke-width="1" fill="none" fill-rule="evenodd">
        <g id="experience.Main2.web-Copy" transform="translate(-300.000000, -1652.000000)">
            <g id="Group-39" transform="translate(300.000000, 1652.000000)">
                <g id="Group-25">
                    <mask id="mask-2" fill="white">
                        <use xlink:href="#path-1"></use>
                    </mask>
                    <g id="Clip-24"></g>
                    <path d="M187.0334,277.5757 L83.6644,277.5757 L83.6644,238.6677 L83.6644,178.9417 L182.5764,178.9417 L182.5764,277.5727 L190.4714,277.5727 L190.4714,178.9307 L292.1684,178.9307 L292.1684,277.5727 L300.0634,277.5727 L300.0634,178.9307 L362.2674,178.9307 L362.2674,277.5757 L296.0444,277.5757 L187.0334,277.5757 Z M83.6644,177.1747 L182.5764,177.1747 L182.5764,120.4447 L83.6644,120.4447 L83.6644,177.1747 Z M83.6644,59.0347 L181.1834,59.0347 L182.5764,60.6317 L182.5764,118.6907 L83.6644,118.6907 L83.6644,59.0347 Z M190.4714,177.1747 L292.1694,177.1747 L292.1694,120.4447 L190.4714,120.4447 L190.4714,177.1747 Z M190.4714,118.6907 L292.1694,118.6907 L292.1694,59.0347 L190.4714,59.0347 L190.4714,118.6907 Z M300.0634,120.4447 L370.6474,120.4447 L370.6474,124.6207 L362.2674,124.6207 L362.2674,177.1757 L300.0634,177.1757 L300.0634,120.4447 Z M300.0634,118.6907 L370.6474,118.6907 L370.6474,59.0347 L300.0634,59.0347 L300.0634,118.6907 Z M426.9354,277.5757 L425.6294,277.5757 L425.6294,124.6207 L378.5424,124.6207 L378.5424,120.4447 L414.7174,120.4447 C414.8284,119.8597 414.9394,119.2747 415.0464,118.6907 L378.5424,118.6907 L378.5424,59.0347 L417.1684,59.0347 C417.0854,58.4497 416.9924,57.8647 416.8944,57.2807 L378.5514,57.2807 L378.5514,-7.0013 C375.9694,-9.1143 373.3384,-11.1113 370.6574,-12.9893 L370.6574,57.2807 L300.0724,57.2807 L300.0724,-33.8933 C298.7854,-33.8113 297.4944,-33.6993 296.2084,-33.5593 C294.8654,-33.4113 293.5214,-33.2413 292.1784,-33.0513 L292.1784,57.2807 L191.4084,57.2807 L191.1674,56.9467 L246.0614,-18.9263 C240.9804,-16.8563 235.9094,-14.7273 230.8384,-12.6393 L190.4714,43.1497 L190.4714,1.4387 C187.8454,2.1367 185.2144,2.7717 182.5764,3.3447 L182.5764,45.0807 L154.9834,6.9247 C151.3884,7.0407 147.7954,6.9947 144.2004,6.7837 L180.4964,56.9467 L180.2544,57.2807 L83.6644,57.2807 L83.6644,-8.8733 C81.0364,-9.7963 78.4034,-10.7153 75.7704,-11.6043 L75.7704,57.2807 L-19.0886,57.2807 L-19.1156,59.0347 L75.7704,59.0347 L75.7704,118.6907 L-15.8096,118.6907 C-15.7306,119.2747 -15.6516,119.8597 -15.5686,120.4447 L75.7704,120.4447 L75.7704,177.1757 L-1.3306,177.1757 C-1.1076,177.7617 -0.8806,178.3457 -0.6476,178.9307 L75.7704,178.9307 L75.8464,277.5757 L1.0404,277.5757 L3.0694,314.9997 L428.9644,314.9997 L426.9354,277.5757 Z" id="Fill-23" fill-opacity="0.3" fill="#9AA2D0" mask="url(#mask-2)"></path>
                </g>
                <g id="Group-32">
                    <g id="Group-28">
                        <mask id="mask-4" fill="white">
                            <use xlink:href="#path-3"></use>
                        </mask>
                        <g id="Clip-27"></g>
                        <path d="M175.3454,91.1646 C155.9074,85.5306 135.9424,98.0706 130.7524,119.1746 L109.7694,204.5076 C109.4624,205.7586 110.1464,207.0426 111.2984,207.3776 L263.5634,251.6226 C263.7114,251.6656 263.8644,251.6936 264.0184,251.7046 C280.0044,252.8146 295.8664,241.0386 300.1534,223.6036 L321.6934,136.0076 C322.0004,134.7556 321.3164,133.4706 320.1634,133.1366 L175.3454,91.1646 Z" id="Fill-26" fill="#2F2E41" mask="url(#mask-4)"></path>
                    </g>
                    <g id="Group-31">
                        <mask id="mask-6" fill="white">
                            <use xlink:href="#path-5"></use>
                        </mask>
                        <g id="Clip-30"></g>
                        <path d="M222.8166,178.9946 C223.5916,181.3766 220.8436,183.2326 219.2286,181.4146 L218.0286,180.0626 C217.4416,179.8926 217.2816,180.5456 217.2816,180.5456 C215.9816,183.2156 214.6106,186.5086 213.2906,189.9286 C212.3126,192.4626 208.8206,191.4386 209.1556,188.7166 C209.6066,185.0486 210.0016,181.4786 210.2496,178.5076 C210.4106,177.8546 209.8246,177.6856 209.8246,177.6856 L208.2826,178.1706 C206.1416,178.8436 204.6006,176.0026 206.1506,174.2646 C206.6656,173.6856 207.0626,173.1666 207.2706,172.7536 L206.8446,171.9316 C205.0196,170.5226 201.9616,168.8266 198.6266,167.1636 C196.3866,166.0466 197.3276,162.3946 199.7756,162.7026 C203.3876,163.1576 206.7616,163.4796 208.9296,163.4516 C209.5156,163.6216 209.6756,162.9706 209.6756,162.9706 C209.6536,162.8476 209.6266,162.7116 209.5936,162.5646 C209.0456,160.1166 211.8936,158.5386 213.3586,160.4926 L213.4086,160.5576 C213.9946,160.7276 214.1546,160.0756 214.1546,160.0756 C215.4556,157.4056 216.8266,154.1126 218.1466,150.6926 C219.1236,148.1586 222.6156,149.1826 222.2806,151.9046 C221.8306,155.5726 221.4346,159.1416 221.1866,162.1136 C221.0256,162.7656 221.6116,162.9346 221.6116,162.9346 L222.5506,162.5456 C224.6276,161.6826 226.4166,164.3956 224.9786,166.2386 C224.6896,166.6086 224.4646,166.9396 224.3266,167.2156 L224.7526,168.0376 C226.4946,169.1546 229.3016,170.5216 232.4016,171.8956 C234.6906,172.9106 233.8536,176.6406 231.3906,176.3996 C227.9966,176.0656 224.8706,175.8386 222.8276,175.8646 C222.2416,175.6946 222.2416,175.6946 222.0816,176.3476 C222.1946,176.9776 222.4646,177.9116 222.8166,178.9946" id="Fill-29" fill="#2F2E41" mask="url(#mask-6)"></path>
                    </g>
                </g>
                <g id="Group-35">
                    <mask id="mask-8" fill="white">
                        <use xlink:href="#path-7"></use>
                    </mask>
                    <g id="Clip-34"></g>
                    <path d="M165.3605,77.3199 C146.4095,71.8279 126.9445,84.0539 121.8855,104.6289 L98.9845,197.7609 L259.1835,244.3119 C275.8315,245.5979 292.4085,233.3629 296.8735,215.2069 L319.7745,122.0739 L165.3605,77.3199 Z" id="Fill-33" fill="#7F6944" mask="url(#mask-8)"></path>
                </g>
                <g id="Group-38">
                    <mask id="mask-10" fill="white">
                        <use xlink:href="#path-9"></use>
                    </mask>
                    <g id="Clip-37"></g>
                    <path d="M218.892299,160.115757 L214.251721,154.891222 C213.925991,154.796932 213.837058,155.159092 213.837058,155.159092 C211.021745,160.938117 207.610154,171.9765 207.610154,171.9765 C207.610154,171.9765 209.394704,160.466666 209.932586,154.02761 C210.021519,153.665449 209.696325,153.570624 209.696325,153.570624 L203.274412,155.589291 C203.274412,155.589291 207.596761,152.186272 208.278222,150.832457 L208.041961,150.375471 C204.81895,147.890174 194.674181,143.786408 194.674181,143.786408 C194.674181,143.786408 205.353618,145.717214 209.199694,145.667926 C209.524888,145.762216 209.614357,145.400056 209.614357,145.400056 C209.3197,143.763371 207.22335,138.112387 207.22335,138.112387 L211.686063,144.060706 C212.011793,144.155532 212.100725,143.792836 212.100725,143.792836 C214.916038,138.013811 218.327093,126.9765 218.327093,126.9765 C218.327093,126.9765 216.54308,138.485262 216.005197,144.924855 C215.916264,145.286479 216.241458,145.381305 216.241458,145.381305 L222.841237,142.638853 C222.841237,142.638853 218.429955,146.403497 217.748494,147.757847 L217.984756,148.214297 C221.296699,150.33797 231.530401,154.079576 231.530401,154.079576 C231.530401,154.079576 220.762566,152.51093 216.91649,152.559683 C216.590761,152.465928 216.590761,152.465928 216.501828,152.827552 C216.795949,154.464773 218.981767,159.753597 218.892299,160.115757" id="Fill-36" fill="#FFFFFF" mask="url(#mask-10)"></path>
                    <mask id="mask-12" fill="white">
                        <use xlink:href="#path-11"></use>
                    </mask>
                    <use id="Clip-74" fill="#FFFFFF" transform="translate(202.775000, 185.720090) rotate(17.000000) translate(-202.775000, -185.720090) " xlink:href="#path-11"></use>
                </g>
            </g>
        </g>
    </g>
</svg>