<svg id="圖層_1" data-name="圖層 1" xmlns="http://www.w3.org/2000/svg" viewBox="0 0 595.28 462.76"><defs><style>.cls-1{fill:#e60012;}.cls-2{fill:#231815;}.cls-3{fill:#1d2088;}.cls-4{fill:#f7f8f8;opacity:0;}</style></defs><path class="cls-1" d="M276.69,342.86l31.92,98.42A1500.42,1500.42,0,0,1,227,243.67c-26-78.63-33.74-125-37.48-155.21A705.3,705.3,0,0,1,184.31,14L202.5,69h0s17.28,86.44,39.09,164.53C249.24,260.91,260.57,298.48,276.69,342.86Z"/><path class="cls-1" d="M304.9,342.86,273,441.28a1500.42,1500.42,0,0,0,81.61-197.61c26-78.63,33.74-125,37.48-155.21A705.3,705.3,0,0,0,397.28,14L379.09,69h0S361.81,155.41,340,233.5C332.35,260.91,321,298.48,304.9,342.86Z"/><path class="cls-2" d="M419.5,438.05,357.89,368.3,290.48,81.68,319,133A655.21,655.21,0,0,0,419.5,438.05Z"/><path class="cls-2" d="M171.79,437l61.6-69.75L300.81,80.64l-28.5,51.28a659,659,0,0,1-42.93,191.25A655.94,655.94,0,0,1,171.79,437Z"/><path class="cls-3" d="M595.12,267.57a1443.73,1443.73,0,0,0-286.64-28.7c-130.28-.17-235,16.81-302,31.12l116-30.25a1393.37,1393.37,0,0,1,362-.6Z"/><rect class="cls-4" x="0.15" width="594.97" height="456.89"/></svg>